<svg width="144" height="24" viewBox="0 0 144 24" fill="none"
  xmlns="http://www.w3.org/2000/svg">
  <g clip-path="url(#mw-logo)">
    <path d="M8.23822 21.7362L3.55209 6.47341H3.43493C3.60363 9.57565 3.68799 11.6469 3.68799 12.6873V21.7362H0V2.2793H5.62336L10.2298 17.1579H10.3095L15.1924 2.2793H20.8158V21.7362H16.9732V12.5279C16.9732 12.0921 16.9732 11.5907 16.9732 11.0237C16.9732 10.4566 17.0481 8.9477 17.1512 6.49684H17.0341L12.0152 21.7362H8.23822Z" fill="white"/>
    <path d="M27.8262 2.2793V21.7362H39.6258V18.3294H31.9547V13.3105H39.1338V9.9318H31.9547V5.6627H39.6258V2.2793H27.8262Z" fill="white"/>
    <path d="M57.6762 11.9281C57.6762 7.74804 55.8315 5.65802 52.1419 5.65802H49.9441V18.3107H51.7155C55.6893 18.3107 57.6762 16.1769 57.6762 11.9094V11.9281ZM61.964 11.8016C61.964 15.0038 61.0518 17.4562 59.2273 19.1588C57.4029 20.8615 54.7708 21.7144 51.3312 21.7175H45.8203V2.2793H51.9123C55.0864 2.2793 57.5513 3.11812 59.307 4.79577C61.0627 6.47341 61.9422 8.8165 61.9453 11.825" fill="white"/>
    <path d="M85.3287 21.7362H83.0934L79.1665 8.70871C78.979 8.13231 78.7728 7.40127 78.5432 6.52496C78.3883 6.00549 78.2677 5.47637 78.1824 4.94104C77.9532 6.24234 77.6402 7.52748 77.2452 8.78838L73.44 21.7362H71.2094L66.0312 2.2793H68.4259L71.5 14.2946C71.8933 15.803 72.2062 17.3313 72.4372 18.873C72.6745 17.262 73.03 15.6706 73.5009 14.1119L76.9874 2.2793H79.382L83.0419 14.2149C83.4962 15.7425 83.8484 17.2987 84.0963 18.873C84.3189 17.3221 84.6318 15.7856 85.0335 14.2712L88.0936 2.2793H90.4882L85.3287 21.7362Z" fill="white"/>
    <path d="M98.57 2.2793H96.3066V21.7362H98.57V2.2793Z" fill="white"/>
    <path d="M121.826 21.7362H119.244L108.611 5.40497H108.503C108.647 7.32005 108.719 9.07736 108.719 10.6769V21.7362H106.629V2.2793H109.183L119.788 18.5403H119.895C119.895 18.3013 119.839 17.5328 119.778 16.23C119.717 14.9272 119.694 14.0041 119.708 13.4464V2.2793H121.826V21.7362Z" fill="white"/>
    <path d="M137.275 11.5396H143.887V21.0056C142.861 21.3333 141.811 21.5823 140.747 21.7507C139.523 21.9267 138.287 22.0097 137.05 21.9991C134.101 21.9991 131.806 21.1243 130.166 19.3748C128.526 17.6253 127.706 15.1698 127.706 12.0082C127.665 10.1617 128.084 8.33404 128.924 6.6894C129.71 5.19722 130.933 3.98076 132.429 3.2029C134.093 2.37075 135.935 1.95886 137.795 2.00324C139.793 1.98351 141.773 2.37263 143.615 3.14667L142.734 5.14297C141.137 4.43145 139.412 4.05048 137.664 4.02298C135.296 4.02298 133.446 4.72903 132.115 6.14112C130.785 7.55322 130.119 9.50891 130.119 12.0082C130.119 14.6324 130.761 16.6241 132.045 17.9831C133.329 19.342 135.211 20.02 137.692 20.0168C139.023 20.0176 140.349 19.8603 141.642 19.5482V13.564H137.294L137.275 11.5396Z" fill="white"/>
  </g>
  <defs>
    <clipPath id="mw-logo">
      <rect width="143.887" height="24" fill="white"/>
    </clipPath>
  </defs>
</svg>
